<?xml version="1.0"?>
<svg xmlns="http://www.w3.org/2000/svg" xmlns:xlink="http://www.w3.org/1999/xlink" version="1.1" id="Capa_1" x="0px" y="0px" viewBox="0 0 480 480" style="enable-background:new 0 0 480 480;" xml:space="preserve" width="512px" height="512px" class=""><g><g>
	<g>
		<path d="M402.296,96.336l-160-48c-1.496-0.448-3.104-0.448-4.592,0l-160,48C74.32,97.352,72,100.472,72,104    s2.32,6.648,5.704,7.664L80,112.352v130.704l-11.576,5.792C65.712,250.2,64,252.968,64,256v48c0,4.416,3.584,8,8,8h32    c4.416,0,8-3.584,8-8v-48c0-3.032-1.712-5.8-4.424-7.16L96,243.056V117.152l32,9.6V200v24c0,61.76,50.24,112,112,112    s112-50.24,112-112v-24v-73.248l50.296-15.088C405.68,110.648,408,107.528,408,104S405.68,97.352,402.296,96.336z M96,296H80    v-35.056l8-4l8,4V296z M336,224c0,52.936-43.064,96-96,96c-52.936,0-96-43.064-96-96v-13.168l93.648,28.816    c0.768,0.232,1.56,0.352,2.352,0.352s1.584-0.12,2.352-0.352L336,210.832V224z M336,194.088l-96,29.536l-96-29.536v-62.536    l93.704,28.112c0.744,0.224,1.52,0.336,2.296,0.336s1.552-0.112,2.296-0.336L336,131.552V194.088z M240,143.648L107.84,104    L240,64.352L372.16,104L240,143.648z" data-original="#000000" class="active-path" data-old_color="#000000" fill="#FFFFFF"/>
	</g>
</g><g>
	<g>
		<path d="M280,256c0,17.648-14.352,32-32,32v16c26.472,0,48-21.528,48-48H280z" data-original="#000000" class="active-path" data-old_color="#000000" fill="#FFFFFF"/>
	</g>
</g><g>
	<g>
		<path d="M440,0H72C49.944,0,32,17.944,32,40v368v32c0,22.056,17.944,40,40,40h368c4.416,0,8-3.584,8-8v-96V8    C448,3.584,444.416,0,440,0z M432,464H72c-13.232,0-24-10.768-24-24v-32c0-13.232,10.768-24,24-24h360V464z M432,368H72    c-9,0-17.312,2.992-24,8.016V40c0-13.232,10.768-24,24-24h360V368z" data-original="#000000" class="active-path" data-old_color="#000000" fill="#FFFFFF"/>
	</g>
</g><g>
	<g>
		<rect x="88" y="400" width="136" height="16" data-original="#000000" class="active-path" data-old_color="#000000" fill="#FFFFFF"/>
	</g>
</g><g>
	<g>
		<rect x="216" y="432" width="144" height="16" data-original="#000000" class="active-path" data-old_color="#000000" fill="#FFFFFF"/>
	</g>
</g><g>
	<g>
		<rect x="376" y="432" width="16" height="16" data-original="#000000" class="active-path" data-old_color="#000000" fill="#FFFFFF"/>
	</g>
</g><g>
	<g>
		<rect x="240" y="400" width="16" height="16" data-original="#000000" class="active-path" data-old_color="#000000" fill="#FFFFFF"/>
	</g>
</g><g>
	<g>
		<rect x="272" y="400" width="16" height="16" data-original="#000000" class="active-path" data-old_color="#000000" fill="#FFFFFF"/>
	</g>
</g><g>
	<g>
		<rect x="304" y="400" width="16" height="16" data-original="#000000" class="active-path" data-old_color="#000000" fill="#FFFFFF"/>
	</g>
</g><g>
	<g>
		<rect x="104" y="432" width="16" height="16" data-original="#000000" class="active-path" data-old_color="#000000" fill="#FFFFFF"/>
	</g>
</g><g>
	<g>
		<rect x="136" y="432" width="16" height="16" data-original="#000000" class="active-path" data-old_color="#000000" fill="#FFFFFF"/>
	</g>
</g></g> </svg>
