<?xml version="1.0"?>
<svg xmlns="http://www.w3.org/2000/svg" height="512px" viewBox="0 0 496 496.01269" width="512px" class=""><g><path d="m496.007812 192.011719h-16v-23.015625c0-18.390625-12.464843-34.34375-30.304687-38.808594l-33.703125-8.421875v-3.839844c14.910156-10.417969 24.007812-27.601562 24.007812-45.914062v-13.992188c0-31.078125-24.351562-57.085937-54.28125-57.9843748-15.503906-.5507812-29.761718 5.1445318-40.71875 15.7851558-10.960937 10.640626-17 24.914063-17 40.191407v16c0 18.304687 9.085938 35.488281 24 45.90625v3.847656l-33.699218 8.421875c-17.839844 4.464844-30.300782 20.417969-30.300782 38.808594v23.015625h-16v48h16v144h40v8c0 12.503906 6.03125 24.320312 16 31.832031v2.136719l-26.992187 7.703125c-8.601563 2.464844-15.890625 7.707031-21.007813 14.5625-5.128906-6.855469-12.410156-12.105469-21.015624-14.5625l-26.984376-7.703125v-2.136719c9.964844-7.511719 16-19.328125 16-31.832031v-14.34375c0-21.503907-16.007812-39.726563-36.441406-41.503907-11.230468-.976562-22.351562 2.808594-30.585937 10.351563-8.246094 7.570313-12.972657 18.320313-12.972657 29.496094v16c0 12.503906 6.03125 24.320312 16 31.832031v2.136719l-26.992187 7.703125c-8.601563 2.464844-15.890625 7.707031-21.007813 14.5625-5.128906-6.855469-12.410156-12.105469-21.015624-14.5625l-26.984376-7.703125v-2.136719c9.964844-7.511719 16-19.328125 16-31.832031v-14.34375c0-21.503907-16.007812-39.726563-36.441406-41.503907-11.238281-.976562-22.351562 2.808594-30.585937 10.351563-8.246094 7.570313-12.972657 18.320313-12.972657 29.496094v16c0 12.503906 6.03125 24.320312 16 31.832031v2.136719l-26.992187 7.703125c-17.082031 4.890625-29.0078125 20.707031-29.0078125 38.472656v23.855469h447.9999995v-23.855469c0-17.765625-11.929687-33.574219-29.015624-38.472656l-26.984376-7.703125v-2.136719c9.964844-7.511719 16-19.328125 16-31.832031v-8h72v-144h16zm-192-23.015625c0-11.03125 7.480469-20.605469 18.175782-23.28125l45.824218-11.453125v-25.328125l-3.992187-2.3125c-12.34375-7.152344-20.007813-20.417969-20.007813-34.609375v-16c0-10.910157 4.308594-21.109375 12.152344-28.703125 7.832032-7.601563 18.191406-11.550782 29.085938-11.273438 21.367187.640625 38.761718 19.472656 38.761718 41.984375v13.992188c0 14.199219-7.671874 27.464843-20.027343 34.609375l-4 2.320312.035156 25.320313 45.816406 11.453125c10.695313 2.675781 18.175781 12.25 18.175781 23.28125v23.015625h-160zm-160 311.015625h-128v-7.855469c0-10.65625 7.160157-20.152344 17.40625-23.078125l38.59375-11.035156v-23.070313l-3.976562-2.3125c-7.527344-4.382812-12.023438-12.101562-12.023438-20.648437v-16c0-6.710938 2.832032-13.160157 7.789063-17.695313 5.007813-4.589844 11.585937-6.800781 18.386719-6.207031 12.238281 1.0625 21.824218 12.289063 21.824218 25.558594v14.34375c0 8.546875-4.496093 16.265625-12.027343 20.648437l-3.972657 2.3125v23.070313l38.582032 11.035156c10.257812 2.925781 17.417968 12.421875 17.417968 23.078125zm144 0h-128v-7.855469c0-10.65625 7.160157-20.152344 17.40625-23.078125l38.59375-11.035156v-23.070313l-3.976562-2.3125c-7.527344-4.382812-12.023438-12.101562-12.023438-20.648437v-16c0-6.710938 2.832032-13.160157 7.789063-17.695313 5.015625-4.589844 11.554687-6.800781 18.386719-6.207031 12.238281 1.0625 21.824218 12.289063 21.824218 25.558594v14.34375c0 8.546875-4.496093 16.265625-12.027343 20.648437l-3.972657 2.3125v23.070313l38.582032 11.035156c10.257812 2.925781 17.417968 12.421875 17.417968 23.078125zm104-88c0 8.546875-4.496093 16.265625-12.027343 20.648437l-3.972657 2.3125v23.070313l38.582032 11.035156c10.257812 2.925781 17.417968 12.421875 17.417968 23.078125v7.855469h-128v-7.855469c0-10.65625 7.160157-20.152344 17.40625-23.078125l38.59375-11.035156v-23.070313l-3.976562-2.3125c-7.527344-4.382812-12.023438-12.101562-12.023438-20.648437v-16c0-6.710938 2.832032-13.160157 7.789063-17.695313 5.015625-4.589844 11.5625-6.800781 18.386719-6.207031 12.238281 1.0625 21.824218 12.289063 21.824218 25.558594zm72-24h-57.226562c-3.949219-17.046875-17.941406-30.34375-35.207031-31.839844-11.257813-.976563-22.351563 2.808594-30.582031 10.351563-6.265626 5.730468-10.464844 13.296874-12.144532 21.488281h-24.839844v-128h160zm16-144h-192v-16h192zm0 0" data-original="#000000" class="active-path" data-old_color="#000000" fill="#FFFFFF"/><path d="m16.007812 208.011719h112v49.136719c-13.769531 3.578124-24 15.992187-24 30.863281 0 17.648437 14.351563 32 32 32 17.648438 0 32-14.351563 32-32 0-14.871094-10.234374-27.285157-24-30.863281v-49.136719h112v-160h16v-48.0000002h-271.9999995v48.0000002h15.9999995zm136 80c0 8.824219-7.175781 16-16 16-8.824218 0-16-7.175781-16-16s7.175782-16 16-16c8.824219 0 16 7.175781 16 16zm88-96h-208v-144h208zm-224-176h240v16h-240zm0 0" data-original="#000000" class="active-path" data-old_color="#000000" fill="#FFFFFF"/><path d="m224.007812 64.011719h-48v112h48zm-16 96h-16v-80h16zm0 0" data-original="#000000" class="active-path" data-old_color="#000000" fill="#FFFFFF"/><path d="m160.007812 80.011719h-48v96h48zm-16 80h-16v-64h16zm0 0" data-original="#000000" class="active-path" data-old_color="#000000" fill="#FFFFFF"/><path d="m96.007812 112.011719h-48v64h48zm-16 48h-16v-32h16zm0 0" data-original="#000000" class="active-path" data-old_color="#000000" fill="#FFFFFF"/></g> </svg>
