<?xml version="1.0" standalone="no"?>
<!DOCTYPE svg PUBLIC "-//W3C//DTD SVG 20010904//EN"
 "http://www.w3.org/TR/2001/REC-SVG-20010904/DTD/svg10.dtd">
<svg version="1.0" xmlns="http://www.w3.org/2000/svg"
 width="250.000000pt" height="250.000000pt" viewBox="0 0 250.000000 250.000000"
 preserveAspectRatio="xMidYMid meet">

<g transform="translate(0.000000,250.000000) scale(0.100000,-0.100000)"
fill="#000000" stroke="none">
<path d="M1080 2235 c-275 -52 -501 -197 -652 -418 -362 -530 -145 -1250 452
-1495 166 -68 399 -88 580 -49 219 47 424 174 565 349 249 312 294 720 117
1073 -104 210 -281 380 -483 466 -180 77 -410 106 -579 74z m750 -715 l0 -310
-320 0 -320 0 0 80 0 80 -32 0 c-18 0 -43 3 -55 6 l-23 6 0 -386 c0 -373 -1
-387 -20 -406 -26 -26 -51 -25 -84 1 l-26 20 0 215 c0 136 -4 214 -10 214 -6
0 -10 -77 -10 -210 0 -211 0 -211 -25 -235 -27 -28 -52 -31 -81 -11 -18 14
-19 33 -24 408 -4 331 -7 389 -18 370 -31 -55 -33 -160 -6 -339 5 -35 3 -43
-15 -52 -56 -30 -86 58 -86 254 0 95 3 117 23 157 40 80 66 92 210 96 88 3
140 -1 186 -12 100 -25 96 -33 96 180 l0 184 320 0 320 0 0 -310z m-817 192
c82 -83 5 -217 -110 -191 -45 10 -71 34 -84 80 -10 31 -9 43 7 76 37 75 129
93 187 35z m554 -712 c32 -19 63 -66 63 -95 0 -8 9 -15 20 -15 30 0 75 -26 99
-56 23 -29 28 -83 10 -116 -8 -14 -7 -28 2 -49 15 -38 8 -44 -33 -29 -18 7
-58 14 -89 15 -75 3 -118 28 -148 88 -26 52 -38 56 -101 31 -23 -9 -43 -14
-46 -11 -3 3 0 22 7 41 10 28 10 39 1 48 -17 17 -15 80 4 107 43 60 146 81
211 41z"/>
<path d="M1250 1630 c0 -82 4 -150 8 -150 4 0 23 13 42 30 19 16 42 29 51 30
20 0 39 -20 39 -41 0 -21 -65 -80 -108 -98 -31 -13 -32 -15 -32 -77 l0 -64
265 0 265 0 0 260 0 260 -265 0 -265 0 0 -150z m480 -165 l0 -165 -40 0 -40 0
0 165 0 165 40 0 40 0 0 -165z m-120 -45 l0 -120 -40 0 -40 0 0 120 0 120 40
0 40 0 0 -120z m-120 -50 l0 -70 -40 0 -40 0 0 70 0 70 40 0 40 0 0 -70z
m-110 -45 c0 -22 -4 -25 -40 -25 -36 0 -40 3 -40 25 0 23 4 25 40 25 36 0 40
-2 40 -25z"/>
<path d="M1424 996 c-36 -16 -74 -61 -74 -88 0 -10 7 -32 15 -49 12 -22 13
-34 4 -50 -14 -27 -8 -32 25 -19 15 5 43 10 63 10 30 0 35 3 30 20 -3 11 -1
20 5 20 5 0 22 9 37 19 15 11 39 23 54 26 50 13 28 78 -37 109 -41 19 -80 20
-122 2z m94 -48 c17 -17 14 -39 -7 -65 -26 -31 -37 -29 -17 2 9 13 16 31 16
40 0 18 -36 20 -43 3 -2 -7 -8 -10 -12 -6 -11 10 14 38 34 38 9 0 22 -5 29
-12z"/>
<path d="M1563 861 c-46 -21 -63 -45 -63 -88 0 -63 44 -94 145 -104 39 -3 79
-10 89 -14 17 -7 18 -6 11 11 -11 26 -10 43 6 82 12 28 12 37 -1 59 -37 65
-115 87 -187 54z m137 -41 c0 -6 -32 -10 -75 -10 -43 0 -75 4 -75 10 0 6 32
10 75 10 43 0 75 -4 75 -10z m0 -30 c0 -6 -30 -10 -69 -10 -39 0 -73 5 -76 10
-4 6 22 10 69 10 44 0 76 -4 76 -10z m-27 -27 c-24 -2 -62 -2 -85 0 -24 2 -5
4 42 4 47 0 66 -2 43 -4z m0 -30 c-24 -2 -62 -2 -85 0 -24 2 -5 4 42 4 47 0
66 -2 43 -4z"/>
</g>
</svg>
