<?xml version="1.0" standalone="no"?>
<!DOCTYPE svg PUBLIC "-//W3C//DTD SVG 20010904//EN"
 "http://www.w3.org/TR/2001/REC-SVG-20010904/DTD/svg10.dtd">
<svg version="1.0" xmlns="http://www.w3.org/2000/svg"
 width="250.000000pt" height="250.000000pt" viewBox="0 0 250.000000 250.000000"
 preserveAspectRatio="xMidYMid meet">

<g transform="translate(0.000000,250.000000) scale(0.100000,-0.100000)"
fill="#000000" stroke="none">
<path d="M1080 2235 c-275 -52 -501 -197 -652 -418 -362 -530 -145 -1250 452
-1495 166 -68 399 -88 580 -49 219 47 424 174 565 349 249 312 294 720 117
1073 -104 210 -281 380 -483 466 -180 77 -410 106 -579 74z m510 -521 c243
-132 148 -504 -130 -504 -98 0 -186 51 -238 138 -24 41 -27 57 -27 132 0 75 3
90 28 133 31 53 96 105 155 124 59 20 151 10 212 -23z m-495 -109 c0 -18 -8
-20 -92 -23 -88 -3 -93 -4 -93 -25 0 -12 -3 -39 -6 -59 l-6 -37 98 -3 c85 -3
99 -5 102 -20 3 -16 -8 -18 -123 -18 -69 0 -135 -5 -146 -10 -18 -10 -19 -23
-19 -218 0 -149 3 -211 12 -220 18 -18 382 -17 396 1 6 7 13 62 14 123 2 89 6
109 18 109 12 0 16 -21 18 -118 3 -113 2 -118 -22 -142 -14 -14 -34 -25 -45
-25 -17 0 -20 -9 -27 -66 -10 -98 -19 -104 -154 -104 -135 0 -145 6 -155 104
-6 56 -10 66 -27 66 -10 0 -30 11 -43 25 l-25 24 0 221 c0 206 1 221 20 240
11 11 30 22 44 26 21 5 25 13 31 70 10 91 30 106 144 102 78 -3 86 -5 86 -23z"/>
<path d="M1388 1696 c-125 -46 -184 -162 -147 -287 26 -86 126 -159 219 -159
52 0 134 35 167 71 34 37 63 110 63 159 0 50 -29 122 -63 158 -54 58 -167 86
-239 58z m192 -132 c0 -21 -141 -182 -160 -183 -21 -1 -114 94 -106 108 12 19
29 12 67 -25 l36 -35 68 75 c66 74 95 92 95 60z"/>
<path d="M906 863 c3 -32 8 -61 11 -65 2 -5 49 -8 104 -8 110 0 104 -4 114 78
l6 52 -121 0 -121 0 7 -57z"/>
</g>
</svg>
