<?xml version="1.0" standalone="no"?>
<!DOCTYPE svg PUBLIC "-//W3C//DTD SVG 20010904//EN"
 "http://www.w3.org/TR/2001/REC-SVG-20010904/DTD/svg10.dtd">
<svg version="1.0" xmlns="http://www.w3.org/2000/svg"
 width="250.000000pt" height="250.000000pt" viewBox="0 0 250.000000 250.000000"
 preserveAspectRatio="xMidYMid meet">

<g transform="translate(0.000000,250.000000) scale(0.100000,-0.100000)"
fill="#000000" stroke="none">
<path d="M1080 2235 c-275 -52 -501 -197 -652 -418 -362 -530 -145 -1250 452
-1495 166 -68 399 -88 580 -49 219 47 424 174 565 349 249 312 294 720 117
1073 -104 210 -281 380 -483 466 -180 77 -410 106 -579 74z m322 -587 l3 -83
83 -3 83 -3 -4 -92 c-7 -131 -13 -148 -68 -203 l-49 -48 -35 34 -35 34 -96
-95 -96 -96 41 -40 c23 -22 41 -43 41 -46 0 -4 -34 -7 -75 -7 l-76 0 3 -92 3
-93 200 0 200 0 3 25 c4 27 19 50 33 50 5 0 9 -29 9 -65 l0 -65 -355 0 -355 0
0 244 0 243 43 1 c23 1 126 4 230 8 175 6 187 7 187 25 0 18 -9 19 -126 19
l-125 0 21 30 c14 19 30 30 46 30 15 0 24 6 24 15 0 8 -7 15 -15 15 -16 0 -19
23 -7 52 7 16 10 16 36 3 36 -19 45 -19 85 1 62 31 79 126 31 174 -44 44 -154
30 -167 -21 -5 -19 -9 -17 -47 20 -51 50 -100 71 -166 71 -43 0 -50 3 -50 20
0 20 7 20 270 20 l269 0 3 -82z m128 -45 c0 -2 -20 -3 -45 -3 l-45 0 0 47 0
47 45 -44 c25 -24 45 -45 45 -47z m-505 13 c92 -71 99 -201 16 -282 -88 -86
-237 -60 -290 48 -36 75 -26 155 27 212 41 43 79 57 148 53 49 -2 69 -8 99
-31z m615 -71 c0 -58 -2 -105 -4 -105 -2 0 -11 -3 -20 -6 -14 -5 -16 5 -16 77
0 76 -2 85 -27 111 l-27 28 47 0 47 0 0 -105z m-388 55 c11 0 18 -7 18 -19 0
-11 5 -23 11 -27 8 -4 8 -9 0 -17 -6 -6 -11 -19 -11 -29 0 -11 -7 -18 -18 -18
-10 0 -23 -5 -28 -10 -7 -7 -18 -6 -35 2 -30 14 -54 57 -39 72 5 5 10 18 10
28 0 11 7 18 19 18 11 0 23 5 27 11 4 8 9 8 17 0 6 -6 19 -11 29 -11z m489
-219 c55 -55 33 -130 -44 -153 -29 -8 -66 -34 -119 -85 -43 -40 -81 -73 -86
-73 -5 0 -21 13 -37 30 l-28 29 60 68 c34 37 70 77 82 87 11 11 21 31 21 45 1
74 96 107 151 52z m-336 -171 c18 -20 18 -21 -4 -51 l-23 -31 53 -54 c29 -30
58 -54 63 -54 5 0 20 10 33 22 l24 22 32 -32 32 -32 -43 -42 -42 -43 -117 117
-117 118 39 40 c21 22 42 40 45 40 4 0 15 -9 25 -20z m235 -122 l-1 -63 -19
24 c-24 28 -25 58 -3 83 9 10 18 18 20 18 1 0 3 -28 3 -62z m-251 -82 c101
-101 113 -117 101 -131 -12 -14 -26 -3 -131 101 -91 91 -116 121 -107 131 6 7
13 13 17 13 3 0 58 -51 120 -114z m251 -181 l0 -145 -355 0 c-348 0 -355 0
-355 20 0 20 7 20 335 20 l335 0 0 107 c0 85 3 110 17 125 9 10 18 18 20 18 1
0 3 -65 3 -145z m-304 120 c14 -13 13 -15 -5 -15 -14 0 -21 -6 -21 -20 0 -16
7 -20 36 -20 38 0 74 -15 74 -30 0 -6 -53 -10 -130 -10 l-130 0 0 55 0 55 81
0 c58 0 85 -4 95 -15z"/>
<path d="M1190 1375 c0 -12 15 -15 75 -15 60 0 75 3 75 15 0 12 -15 15 -75 15
-60 0 -75 -3 -75 -15z"/>
<path d="M930 1205 c0 -11 11 -15 40 -15 29 0 40 4 40 15 0 11 -11 15 -40 15
-29 0 -40 -4 -40 -15z"/>
<path d="M1050 1205 c0 -12 17 -15 90 -15 73 0 90 3 90 15 0 12 -17 15 -90 15
-73 0 -90 -3 -90 -15z"/>
<path d="M930 1130 c0 -20 5 -21 112 -18 98 3 113 5 116 21 3 15 -7 17 -112
17 -110 0 -116 -1 -116 -20z"/>
<path d="M937 1074 c-4 -4 -7 -13 -7 -21 0 -9 17 -13 61 -13 52 0 60 2 57 18
-2 13 -15 18 -53 20 -28 2 -54 0 -58 -4z"/>
<path d="M1087 1074 c-19 -20 -5 -34 34 -34 33 0 40 3 37 18 -3 17 -57 30 -71
16z"/>
<path d="M930 980 c0 -18 7 -20 75 -20 68 0 75 2 75 20 0 18 -7 20 -75 20 -68
0 -75 -2 -75 -20z"/>
<path d="M930 910 c0 -18 7 -20 75 -20 68 0 75 2 75 20 0 18 -7 20 -75 20 -68
0 -75 -2 -75 -20z"/>
<path d="M930 830 c0 -18 7 -20 75 -20 68 0 75 2 75 20 0 18 -7 20 -75 20 -68
0 -75 -2 -75 -20z"/>
<path d="M921 1486 c-83 -83 -84 -84 -104 -65 -16 14 -24 16 -34 7 -11 -9 -9
-16 13 -40 15 -15 35 -28 44 -28 8 0 57 42 108 93 72 73 90 95 80 105 -7 7
-15 12 -18 12 -3 0 -43 -38 -89 -84z"/>
<path d="M1197 923 c-19 -19 -5 -33 33 -33 33 0 40 3 40 20 0 16 -7 20 -33 20
-19 0 -37 -3 -40 -7z"/>
</g>
</svg>
