<?xml version="1.0" standalone="no"?>
<!DOCTYPE svg PUBLIC "-//W3C//DTD SVG 20010904//EN"
 "http://www.w3.org/TR/2001/REC-SVG-20010904/DTD/svg10.dtd">
<svg version="1.0" xmlns="http://www.w3.org/2000/svg"
 width="250.000000pt" height="250.000000pt" viewBox="0 0 250.000000 250.000000"
 preserveAspectRatio="xMidYMid meet">

<g transform="translate(0.000000,250.000000) scale(0.100000,-0.100000)"
fill="#000000" stroke="none">
<path d="M1080 2235 c-275 -52 -501 -197 -652 -418 -362 -530 -145 -1250 452
-1495 166 -68 399 -88 580 -49 219 47 424 174 565 349 249 312 294 720 117
1073 -104 210 -281 380 -483 466 -180 77 -410 106 -579 74z m360 -480 l0 -105
-167 2 -168 3 -3 80 c-5 135 -19 125 173 125 l165 0 0 -105z m228 4 c67 -33
102 -94 102 -179 0 -56 -5 -73 -29 -112 -30 -46 -95 -88 -139 -88 -18 0 -22
-6 -22 -30 0 -16 -4 -30 -8 -30 -4 0 -27 19 -50 43 l-41 42 47 49 47 50 3 -32
c4 -38 22 -41 69 -12 46 28 67 65 67 119 0 86 -62 141 -159 141 -43 0 -45 1
-45 30 0 30 0 30 57 30 38 0 72 -7 101 -21z m-244 -245 c13 -5 16 -25 16 -110
l0 -104 -164 0 c-140 0 -165 2 -170 16 -11 29 -7 179 6 192 13 13 281 18 312
6z m-376 -115 c3 -25 1 -26 -57 -32 -93 -8 -151 -63 -151 -143 0 -63 62 -134
118 -134 18 0 22 5 22 32 l0 32 45 -44 c25 -24 45 -49 45 -55 0 -6 -20 -31
-45 -55 l-45 -44 0 31 c0 27 -4 32 -32 38 -95 20 -159 92 -166 187 -9 125 84
220 213 215 46 -2 50 -4 53 -28z m392 -333 c0 -85 -3 -105 -16 -110 -25 -10
-286 -6 -306 5 -15 8 -18 23 -18 94 0 46 3 90 6 99 5 14 30 16 170 16 l164 0
0 -104z m-35 -346 l0 -145 -127 -3 -128 -3 0 144 c0 79 3 147 7 151 4 3 61 5
127 4 l121 -3 0 -145z"/>
<path d="M1170 1755 l0 -45 105 0 105 0 0 45 0 45 -105 0 -105 0 0 -45z"/>
<path d="M1170 1405 l0 -45 105 0 105 0 0 45 0 45 -105 0 -105 0 0 -45z"/>
<path d="M1170 1065 l0 -45 105 0 105 0 0 45 0 45 -105 0 -105 0 0 -45z"/>
<path d="M1170 720 l0 -130 110 0 110 0 0 130 0 130 -110 0 -110 0 0 -130z
m60 83 c0 -5 -7 -17 -15 -27 -12 -16 -18 -17 -27 -8 -9 9 -8 15 8 27 21 16 34
19 34 8z m150 -18 c0 -12 -14 -15 -64 -15 -60 0 -84 8 -69 24 3 3 35 6 70 6
49 0 63 -3 63 -15z m-160 -70 c-12 -15 -40 -21 -40 -9 0 3 10 14 23 24 24 20
37 9 17 -15z m160 5 c0 -6 -30 -10 -70 -10 -40 0 -70 4 -70 10 0 6 30 10 70
10 40 0 70 -4 70 -10z m-160 -71 c0 -25 -33 -22 -38 4 -2 12 3 17 17 17 15 0
21 -6 21 -21z m158 4 c3 -10 -15 -13 -67 -13 -66 0 -82 6 -64 24 12 12 126 2
131 -11z"/>
<path d="M1190 650 c0 -5 5 -10 10 -10 6 0 10 5 10 10 0 6 -4 10 -10 10 -5 0
-10 -4 -10 -10z"/>
</g>
</svg>
