<?xml version="1.0"?>
<svg xmlns="http://www.w3.org/2000/svg" height="512px" viewBox="0 0 511 512" width="512px"><g><path d="m207.203125 43.847656v84.34375.039063.039062 96.878907c0 28.949218 23.550781 52.5 52.5 52.5 28.945313 0 52.496094-23.550782 52.496094-52.5v-181.453126c3.125-1.101562 5.996093-2.875 8.410156-5.285156 4.25-4.25 6.589844-9.898437 6.589844-15.910156 0-.390625-.011719-.730469-.023438-1.0625-.277343-5.886719-2.847656-11.347656-7.25-15.359375-4.277343-3.917969-9.835937-6.078125-15.648437-6.078125h-89.996094c-6.007812 0-11.660156 2.339844-15.910156 6.589844s-6.589844 9.898437-6.589844 15.910156 2.339844 11.660156 6.589844 15.910156c2.523437 2.523438 5.542968 4.351563 8.832031 5.4375zm7.078125-28.847656h90.007812c2.019532 0 4.027344.777344 5.507813 2.140625 1.472656 1.359375 2.300781 3.089844 2.390625 4.988281l.011719.050782v.320312c-.011719 4.128906-3.371094 7.488281-7.5 7.5h-29.1875c-4.132813 0-7.5 3.371094-7.5 7.5 0 4.140625 3.367187 7.5 7.5 7.5h21.691406v75.730469h-52.5c-4.132813 0-7.5 3.367187-7.5 7.5 0 4.140625 3.367187 7.5 7.5 7.5h52.5v89.417969c0 20.675781-16.824219 37.5-37.5 37.5s-37.5-16.824219-37.5-37.5v-180.148438h23.289063c4.128906 0 7.5-3.359375 7.5-7.5 0-4.128906-3.359376-7.488281-7.480469-7.5-.082031-.019531-.160157 0-.242188 0-14.039062 0-14.367187 0-30.988281 0-4.128906-.011719-7.488281-3.371094-7.5-7.5.011719-4.128906 3.371094-7.488281 7.5-7.5zm0 0" data-original="#000000" class="active-path" data-old_color="#000000" fill="#FFFFFF"/><path d="m504.660156 425.675781-69.039062-119.167969c-3.050782-5.265624-5.726563-26.59375-5.726563-36.691406v-51.367187c10.042969-2.253907 17.574219-11.234375 17.574219-21.949219 0-.359375-.007812-.722656-.027344-1.078125-.546875-11.640625-10.390625-20.421875-22.898437-20.421875h-76.714844c-12.828125 0-22.5 9.242188-22.5 21.5 0 10.714844 7.527344 19.695312 17.570313 21.949219v51.367187c0 10.097656-2.675782 31.425782-5.722657 36.6875l-69.039062 119.171875c-22.210938 38.335938 5.414062 86.324219 49.75 86.324219h137.019531c44.304688 0 71.980469-47.957031 49.753906-86.324219zm-49.753906 71.324219h-137.019531c-32.746094 0-53.199219-35.449219-36.773438-63.804688l69.039063-119.171874c5.890625-10.167969 7.746094-37.40625 7.746094-44.207032v-50.816406h19.894531c4.140625 0 7.5-3.355469 7.5-7.5s-3.355469-7.5-7.5-7.5h-29.964844c-4.136719 0-7.5-3.363281-7.5-7.5 0-4.464844 3.886719-6.5 7.5-6.5h76.714844c3.675781 0 7.71875 1.917969 7.917969 6.136719.003906.121093.007812.242187.007812.363281 0 4.136719-3.363281 7.5-7.5 7.5h-17.214844c-4.144531 0-7.5 3.355469-7.5 7.5s3.355469 7.5 7.5 7.5h7.140625v50.816406c0 6.800782 1.855469 34.039063 7.75 44.207032l69.035157 119.171874c16.417968 28.335938-4 63.804688-36.773438 63.804688zm0 0" data-original="#000000" class="active-path" data-old_color="#000000" fill="#FFFFFF"/><path d="m443.902344 380.449219c-2.078125-3.585938-6.671875-4.804688-10.25-2.726563-3.585938 2.078125-4.804688 6.664063-2.726563 10.25l33.898438 58.464844c5.214843 9-1.265625 20.273438-11.679688 20.273438h-133.496093c-10.402344 0-16.898438-11.265626-11.675782-20.273438l31.730469-54.726562h72.710937c4.140626 0 7.5-3.359376 7.5-7.5 0-4.144532-3.359374-7.5-7.5-7.5h-77.03125c-2.675781 0-5.148437 1.421874-6.488281 3.734374l-33.898437 58.46875c-11.019532 19 2.675781 42.796876 24.652344 42.796876h133.496093c21.960938 0 35.679688-23.78125 24.65625-42.796876zm0 0" data-original="#000000" class="active-path" data-old_color="#000000" fill="#FFFFFF"/><path d="m373.902344 408.507812c0 4.140626-3.359375 7.5-7.5 7.5-4.144532 0-7.5-3.359374-7.5-7.5 0-4.144531 3.355468-7.5 7.5-7.5 4.140625 0 7.5 3.355469 7.5 7.5zm0 0" data-original="#000000" class="active-path" data-old_color="#000000" fill="#FFFFFF"/><path d="m418.898438 433.507812c0 4.140626-3.355469 7.5-7.5 7.5-4.140626 0-7.5-3.359374-7.5-7.5 0-4.144531 3.359374-7.5 7.5-7.5 4.144531 0 7.5 3.355469 7.5 7.5zm0 0" data-original="#000000" class="active-path" data-old_color="#000000" fill="#FFFFFF"/><path d="m383.898438 448.507812c0 4.140626-3.355469 7.5-7.5 7.5-4.140626 0-7.5-3.359374-7.5-7.5 0-4.144531 3.359374-7.5 7.5-7.5 4.144531 0 7.5 3.355469 7.5 7.5zm0 0" data-original="#000000" class="active-path" data-old_color="#000000" fill="#FFFFFF"/><path d="m176.492188 254.320312v-35.378906c10.003906-2.226562 17.570312-11.121094 17.570312-21.941406 0-12.511719-10.402344-22.5-22.917969-22.5h-76.71875c-6.011719 0-11.660156 2.339844-15.910156 6.589844s-6.589844 9.898437-6.589844 15.910156 2.339844 11.660156 6.589844 15.910156c3.058594 3.058594 6.851563 5.109375 10.972656 6.027344l-.039062 35.398438c-53.203125 18.507812-88.949219 68.804687-88.949219 125.160156-.003906 73.078125 59.394531 132.503906 132.492188 132.503906h.433593c72.820313-.230469 132.0625-59.671875 132.0625-132.5 0-56.351562-35.738281-106.648438-88.996093-125.179688zm-43.117188 242.679688c-64.84375.191406-117.878906-52.433594-117.875-117.503906 0-49.976563 31.699219-94.582032 78.878906-110.996094 6.050782-2.105469 10.117188-7.800781 10.117188-14.175781v-34.824219h13.277344c.082031 0 .160156.027344.242187 0 4.117187-.011719 7.480469-3.371094 7.480469-7.5s-3.359375-7.5-7.5-7.5h-23.570313c-4.128906-.011719-7.488281-3.371094-7.5-7.5.011719-4.128906 3.371094-7.488281 7.5-7.5h76.726563c4.078125 0 7.910156 3.152344 7.910156 7.5-.007812 4.128906-3.371094 7.488281-7.5 7.5h-23.558594c-4.128906 0-7.5 3.371094-7.5 7.5 0 4.140625 3.371094 7.5 7.5 7.5h.019532 13.46875v34.820312c0 6.375 4.074218 12.078126 10.132812 14.1875 47.171875 16.414063 78.863281 61.019532 78.863281 110.992188.003907 64.585938-52.535156 117.296875-117.113281 117.5zm0 0" data-original="#000000" class="active-path" data-old_color="#000000" fill="#FFFFFF"/><path d="m187.992188 333c-16.71875 0-29.480469 9.574219-39.757813 18.941406-3.0625 2.789063-3.28125 7.53125-.492187 10.59375 2.789062 3.066406 7.53125 3.285156 10.59375.492188 11.714843-10.671875 20.308593-15.027344 29.65625-15.027344 17.4375 0 33.039062 14.058594 32.460937 34.0625-.816406 17.199219-15.0625 30.9375-32.460937 30.9375-19.085938 0-33.894532-18.320312-49.570313-37.714844-16.023437-19.820312-34.1875-42.285156-60.425781-42.285156-12.480469 0-24.265625 4.804688-33.1875 13.527344-9.363282 9.152344-14.90625 22.007812-14.25 36.332031 1.785156 55.066406 47.054687 99.136719 102.464844 99.140625h.304687c57.835937-.183594 102.546875-48.308594 102.164063-101.90625.117187-24.765625-20.570313-47.09375-47.5-47.09375zm-54.714844 134h-.277344c-51.851562-.003906-88.410156-43.363281-87.476562-87.316406.425781-17.46875 14.996093-31.683594 32.472656-31.683594 19.074218 0 34.167968 18.664062 48.761718 36.714844 17.199219 21.28125 34.984376 43.285156 61.234376 43.285156 7.4375 0 14.480468-1.71875 20.753906-4.777344-15.113282 26.058594-43.28125 43.675782-75.46875 43.777344zm0 0" data-original="#000000" class="active-path" data-old_color="#000000" fill="#FFFFFF"/><path d="m80.496094 384.5c0 4.140625-3.355469 7.5-7.5 7.5-4.140625 0-7.5-3.359375-7.5-7.5s3.359375-7.5 7.5-7.5c4.144531 0 7.5 3.359375 7.5 7.5zm0 0" data-original="#000000" class="active-path" data-old_color="#000000" fill="#FFFFFF"/><path d="m125.496094 409.5c0 4.140625-3.359375 7.5-7.5 7.5s-7.5-3.359375-7.5-7.5 3.359375-7.5 7.5-7.5 7.5 3.359375 7.5 7.5zm0 0" data-original="#000000" class="active-path" data-old_color="#000000" fill="#FFFFFF"/><path d="m90.496094 424.5c0 4.140625-3.355469 7.5-7.5 7.5-4.140625 0-7.5-3.359375-7.5-7.5s3.359375-7.5 7.5-7.5c4.144531 0 7.5 3.359375 7.5 7.5zm0 0" data-original="#000000" class="active-path" data-old_color="#000000" fill="#FFFFFF"/></g> </svg>
