<?xml version="1.0"?>
<svg xmlns="http://www.w3.org/2000/svg" id="Layer_5" enable-background="new 0 0 64 64" height="512px" viewBox="0 0 64 64" width="512px" class=""><g><g><g fill="#f0bc5e"><path d="m3 34h10v9h-10z" data-original="#FFFFFF" class="active-path" data-old_color="#F0BC5E" fill="#FFFFFF"/><path d="m37 6v4h8v8h4v-8-4z" data-original="#FFFFFF" class="active-path" data-old_color="#F0BC5E" fill="#FFFFFF"/><path d="m11.529 28.206.687 2.794h7.568l.687-2.794c.341-.126.682-.27 1.021-.429l2.508 1.367v-13.144c0 4.418-3.582 8-8 8s-8-3.582-8-8 3.582-8 8-8 8 3.582 8 8h7v-3.784l-2.794-.687c-.123-.333-.262-.665-.417-.995l1.493-2.465-5.352-5.352-2.465 1.493c-.331-.154-.663-.293-.995-.416l-.686-2.794h-7.568l-.687 2.794c-.332.123-.664.262-.995.416l-2.465-1.492-5.352 5.351 1.493 2.466c-.154.33-.293.662-.417.994l-2.793.687v7.568l2.794.687c.123.332.262.664.416.994l-1.492 2.467 5.351 5.351 2.466-1.492c.33.153.662.292.994.415z" data-original="#FFFFFF" class="active-path" data-old_color="#F0BC5E" fill="#FFFFFF"/><path d="m55 16h4v8h-4z" data-original="#FFFFFF" class="active-path" data-old_color="#F0BC5E" fill="#FFFFFF"/></g><path d="m15.527 46.003h2.599v2h-2.599z" transform="matrix(.636 -.772 .772 .636 -30.151 30.105)" data-original="#FFFFFF" class="active-path" data-old_color="#000000" fill="#FFFFFF"/><path d="m16.94 38h12.955v2h-12.955z" transform="matrix(.636 -.772 .772 .636 -21.575 32.284)" data-original="#FFFFFF" class="active-path" data-old_color="#000000" fill="#FFFFFF"/><path d="m38 57h-2v-12h-8v12h-2v-8h-8v10h28v-18h-8zm-14 0h-4v-6h4zm6-10h4v10h-4zm10-4h4v14h-4z" data-original="#FFFFFF" class="active-path" data-old_color="#000000" fill="#FFFFFF"/><path d="m63 33v-22h-10v-10h-20v14h-8.059c-.5-4.493-4.317-8-8.941-8-4.962 0-9 4.037-9 9s4.038 9 9 9c2.826 0 5.349-1.312 7-3.356v9.997l-14.114 17.138 4.375 14.221h37.478l4.375-14.221-14.114-17.137v-8.642h2v10zm-2-20v18h-16v-8h8v-10zm-45 10c-3.86 0-7-3.141-7-7s3.14-7 7-7c3.519 0 6.432 2.614 6.92 6h-1.92v2h1.92c-.488 3.386-3.401 6-6.92 6zm36.886 26.221-3.625 11.779h-34.522l-3.625-11.779 13.886-16.863v-15.358h14v2h-4v2h4v2h-6v2h6v2h-4v2h4v2h-6v2h6.528zm-11.886-32.221h2v-2h-8v-12h16v18h-10z" data-original="#FFFFFF" class="active-path" data-old_color="#000000" fill="#FFFFFF"/><path d="m37 5h12v2h-12z" data-original="#FFFFFF" class="active-path" data-old_color="#000000" fill="#FFFFFF"/><path d="m37 9h12v2h-12z" data-original="#FFFFFF" class="active-path" data-old_color="#000000" fill="#FFFFFF"/><path d="m45 13h4v2h-4z" data-original="#FFFFFF" class="active-path" data-old_color="#000000" fill="#FFFFFF"/><path d="m45 17h4v2h-4z" data-original="#FFFFFF" class="active-path" data-old_color="#000000" fill="#FFFFFF"/><path d="m55 15h4v2h-4z" data-original="#FFFFFF" class="active-path" data-old_color="#000000" fill="#FFFFFF"/><path d="m55 19h4v2h-4z" data-original="#FFFFFF" class="active-path" data-old_color="#000000" fill="#FFFFFF"/><path d="m55 23h4v2h-4z" data-original="#FFFFFF" class="active-path" data-old_color="#000000" fill="#FFFFFF"/><path d="m47 27h2v2h-2z" data-original="#FFFFFF" class="active-path" data-old_color="#000000" fill="#FFFFFF"/><path d="m51 27h8v2h-8z" data-original="#FFFFFF" class="active-path" data-old_color="#000000" fill="#FFFFFF"/><path d="m3 33h10v2h-10z" data-original="#FFFFFF" class="active-path" data-old_color="#000000" fill="#FFFFFF"/><path d="m3 37h10v2h-10z" data-original="#FFFFFF" class="active-path" data-old_color="#000000" fill="#FFFFFF"/><path d="m11 41h2v2h-2z" data-original="#FFFFFF" class="active-path" data-old_color="#000000" fill="#FFFFFF"/><path d="m7 41h2v2h-2z" data-original="#FFFFFF" class="active-path" data-old_color="#000000" fill="#FFFFFF"/><path d="m3 41h2v2h-2z" data-original="#FFFFFF" class="active-path" data-old_color="#000000" fill="#FFFFFF"/></g></g> </svg>
